#!OML:ASF E:/inclinewalkrobotboard/Project1/Captureday1/Session1/subject1.ASF
:FULLY-SPECIFIED
:DEGREES
76
root 0 0 0 1.5401065742410038 -3.869585161904263 1.8520385764061547
lowerback 12.238466896386766 0.9616864671543968 0.025103575003676326
upperback -4.446762724069202 1.2174824648033367 -0.6313505735019179
thorax -11.735016780106191 0.563187378596639 -0.9375722936298532
lowerneck -6.067990457796616 1.8658437045902103 4.7736450912422494
upperneck 18.11136286734883 3.4984754518158283 -8.584823937517003
head 6.648721719227031 1.3075243460183965 -3.279754145118133
rclavicle 2.164507706098622E-15 -7.076670404510667E-16
rhumerus 21.087604514885584 15.62797818247296 -47.80952186467172
rradius 73.27653744556712
rwrist 26.6924879598056
rhand -34.614637014245965 -57.177443287910116
rfingers 7.1250200000000286
rthumb -7.716567289518263 -87.13915816242675
lclavicle -7.378563005007897E-16 -7.322928430547158E-16
lhumerus 23.165494879119542 -14.449602034078021 44.74505502331813
lradius 71.82464202661438
lwrist -22.255051391790182
lhand -45.7519698278062 -71.95317979352339
lfingers 7.1250200000000286
lthumb -18.505974563540427 -42.7365608647123
rfemur -24.97706380868442 -1.9494640333172848 17.776051844014166
rtibia 50.65410368264371
rfoot -34.26049735400545 -18.29407211323871
rtoes -21.861602898242186
lfemur -28.080967462995282 2.1452797993701376 -17.153836722556065
ltibia 50.86158913277933
lfoot -35.53973447648078 -0.2750353412986746
ltoes -22.086585859026037
77
root 0 0 0 1.5401124801122443 -3.8685802945136785 1.8518682939825846
lowerback 12.23919336875834 0.9609806329477328 0.02516494470387126
upperback -4.446770517799305 1.216628145071178 -0.6309993866127172
thorax -11.735479935107705 0.5627570852305982 -0.9371743182272931
lowerneck -6.06771392024763 1.8660851078610012 4.773867577103172
upperneck 18.1105265513199 3.498934539761658 -8.585315503896847
head 6.64841940332121 1.3077156602653286 -3.279912705452352
rclavicle 2.164022208505494E-15 -7.066159263682296E-16
rhumerus 21.08880725485099 15.628371391567581 -47.808600536156646
rradius 73.27687108194473
rwrist 26.69304552886677
rhand -34.615019947449106 -57.18045980304112
rfingers 7.1250200000000286
rthumb -7.717350013188277 -87.14148451395546
lclavicle -7.375126298767942E-16 -7.476758119807324E-16
lhumerus 23.169389716426096 -14.453133198056385 44.745214959878034
lradius 71.82727624460804
lwrist -22.253928756160896
lhand -45.75336375799631 -71.95458630173806
lfingers 7.1250200000000286
lthumb -18.507450107627914 -42.73795723564761
rfemur -24.972696574478952 -1.9506912390153888 17.778570052543706
rtibia 50.653649900958875
rfoot -34.267087920353944 -18.28945743807968
rtoes -21.87455743698498
lfemur -28.084132733229758 2.1411014475922268 -17.152891974198013
ltibia 50.85164844210619
lfoot -35.55604081963716 -0.2707088702030913
ltoes -22.09797635416833
78
root 0 0 0 1.5400599358393232 -3.868281224949852 1.8519250176156294
lowerback 12.239257321362587 0.9608496687826824 0.025092180222306637
upperback -4.446780160770377 1.2164543708181275 -0.6309700914964219
thorax -11.735538637067371 0.5626727304990052 -0.9370878625877077
lowerneck -6.067627080252319 1.8661011855609535 4.773911715967132
upperneck 18.110317434895865 3.4989702149952695 -8.585358887588292
head 6.648336636566841 1.3077341429229628 -3.279929099852681
rclavicle 2.161562712061485E-15 -7.074297618158041E-16
rhumerus 21.088794793357025 15.628209047308092 -47.80832438110829
rradius 73.2768978806986
rwrist 26.693249450955598
rhand -34.61511422584135 -57.180560389315694
rfingers 7.1250200000000286
rthumb -7.717452257593781 -87.14173458838178
lclavicle -7.396827932938031E-16 -7.485573257157534E-16
lhumerus 23.16939083873573 -14.453194547930737 44.74518255067168
lradius 71.82743439139048
lwrist -22.253911040941226
lhand -45.7534593851757 -71.95479995702706
lfingers 7.1250200000000286
lthumb -18.50753829653507 -42.73816933986683
rfemur -24.969911664314385 -1.950298674890882 17.77923265887072
rtibia 50.65092986865912
rfoot -34.2679331574664 -18.28776424513559
rtoes -21.879284741853954
lfemur -28.081899123643904 2.140590117092717 -17.151666551880634
ltibia 50.85157973638378
lfoot -35.550917947265745 -0.2737296058556642
ltoes -22.100882578576986
79
root 0 0 0 1.53997683130103 -3.8681041907542717 1.8518535436739545
lowerback 12.239331585206216 0.9607719328713604 0.02514912787324891
upperback -4.446788726464035 1.216364505536454 -0.630918833712291
thorax -11.735595610403752 0.5626267152402378 -0.9370581196914749
lowerneck -6.067545523193718 1.8661326599954966 4.773966233738709
upperneck 18.110252934235184 3.4990243565865358 -8.585448012966626
head 6.648300074306017 1.3077554718810847 -3.2799613991623637
rclavicle 2.1595633353289595E-15 -7.091843319375743E-16
rhumerus 21.088001460404776 15.626952833941983 -47.80727303143766
rradius 73.2762668373029
rwrist 26.69438590103737
rhand -34.61516617176998 -57.181095686554336
rfingers 7.1250200000000286
rthumb -7.717493851269859 -87.1422373845059
lclavicle -7.409748143323165E-16 -7.499565887536754E-16
lhumerus 23.169357567996812 -14.45297620403692 44.745075080813564
lradius 71.82732383794306
lwrist -22.254076664288085
lhand -45.75348729888948 -71.95517812675101
lfingers 7.1250200000000286
lthumb -18.50755557258644 -42.73852182615735
rfemur -24.968956150528367 -1.9503387177115057 17.779226461176282
rtibia 50.651387769717545
rfoot -34.26672245680168 -18.286925683917595
rtoes -21.880177816563332
lfemur -28.080703503210458 2.141112950765248 -17.150791702373347
ltibia 50.858002159753156
lfoot -35.543709539919845 -0.2786072748521988
ltoes -22.1018439637439
80
root 0 0 0 1.5401388803973322 -3.869824492767579 1.8517747413725631
lowerback 12.238349045919268 0.9618575359790551 0.02537753200657078
upperback -4.446738006262365 1.2177280689634293 -0.6313409436951508
thorax -11.734903042217592 0.5633029175000519 -0.9377387327770796
lowerneck -6.0681469906765875 1.8658457121614085 4.773670420822051
upperneck 18.111752901457024 3.498471386896581 -8.584898569550703
head 6.648867763874142 1.3075120143835224 -3.279784280071733
rclavicle 2.1625731023254813E-15 -7.093289268116233E-16
rhumerus 21.086191141739207 15.625903563018257 -47.80798451114803
rradius 73.275406397185
rwrist 26.694113913159562
rhand -34.614692211010606 -57.177909852935805
rfingers 7.1250200000000286
rthumb -7.716613632977911 -87.1396166208058
lclavicle -7.391010006466486E-16 -7.329537264168164E-16
lhumerus 23.16424118363023 -14.447607286606713 44.74461722795656
lradius 71.82323635529886
lwrist -22.256066196102942
lhand -45.751749754778075 -71.95402343950926
lfingers 7.1250200000000286
lthumb -18.50574453988502 -42.73744756576214
rfemur -24.96935968736363 -1.9504353350610772 17.775974606530507
rtibia 50.660652010294434
rfoot -34.25551623643698 -18.28959228259068
rtoes -21.867286986695497
lfemur -28.07932890622461 2.144686939892958 -17.149097788134306
ltibia 50.87093307667604
lfoot -35.51887715618578 -0.28664754218234645
ltoes -22.09121725412433
81
root 0 0 0 1.5399742892947401 -3.868635993153081 1.851753047539932
lowerback 12.239205150692626 0.9610484660331784 0.025336128748202014
upperback -4.446790047612338 1.2167299642052205 -0.6310034613598511
thorax -11.735506909811914 0.5628045861119896 -0.9372803835910473
lowerneck -6.067694920694798 1.8661155601332788 4.7739512202667385
upperneck 18.110859362913796 3.4989787165692467 -8.585471603749031
head 6.64851958895229 1.307726010132571 -3.279974456773086
rclavicle 2.161956759330441E-15 -7.086315863380133E-16
rhumerus 21.087161493432923 15.62599264752655 -47.80685975705603
rradius 73.27553387726891
rwrist 26.694891289634523
rhand -34.61504801391342 -57.18098577360071
rfingers 7.1250200000000286
rthumb -7.717369587678004 -87.14195950642417
lclavicle -7.387783585410578E-16 -7.486770072710354E-16
lhumerus 23.1682961089396 -14.45128714049005 44.74475883428799
lradius 71.82601513953017
lwrist -22.25493521443709
lhand -45.753212045288436 -71.95560723607335
lfingers 7.1250200000000286
lthumb -18.50728754152752 -42.73901379336421
rfemur -24.969366074272617 -1.9536622167099589 17.775326569121045
rtibia 50.672292718465854
rfoot -34.25435343933175 -18.285505760511988
rtoes -21.874058380180564
lfemur -28.082886762042534 2.1428939212333997 -17.15118200824818
ltibia 50.869661218381296
lfoot -35.536288163266505 -0.283038209908566
ltoes -22.09630767808732
